<svg xmlns="http://www.w3.org/2000/svg" viewBox="1683 1302 20 22"><defs><style>.svg-icon.calendar{fill:#e82e81;}</style></defs><g transform="translate(1683 1302)"><path class="svg-icon calendar" d="M16,2H4A4,4,0,0,0,0,6V18a4,4,0,0,0,4,4H16a4,4,0,0,0,4-4V6A4,4,0,0,0,16,2ZM1,8V6A3,3,0,0,1,4,3H16a3,3,0,0,1,3,3V8ZM4,21a3,3,0,0,1-3-3V9H19v9a3,3,0,0,1-3,3Z"/><path class="svg-icon calendar" d="M10,0A1,1,0,0,0,9,1V5a1,1,0,0,0,2,0V1A1,1,0,0,0,10,0Z"/><path class="svg-icon calendar" d="M15,0a1,1,0,0,0-1,1V5a1,1,0,0,0,2,0V1A1,1,0,0,0,15,0Z"/><path class="svg-icon calendar" d="M5,0A1,1,0,0,0,4,1V5A1,1,0,0,0,6,5V1A1,1,0,0,0,5,0Z"/><rect class="svg-icon calendar" width="14" height="3" transform="translate(3 11)"/><rect class="svg-icon calendar" width="7" height="3" transform="translate(3 16)"/></g></svg>