<svg xmlns="http://www.w3.org/2000/svg" viewBox="2051 903 19 12.573"><defs><style>.svg-icon.email{fill:#fff;}</style></defs><g transform="translate(2051 903.025)"><path class="svg-icon email" d="M9.51,40.662H1.533C.48,40.662.01,40.2,0,39.15V32.059c0-.761.146-.845.813-.49,2.461,1.314,4.932,2.617,7.383,3.963a2.5,2.5,0,0,0,2.607,0c2.451-1.335,4.922-2.638,7.383-3.963.667-.355.813-.271.813.49v7.2a1.272,1.272,0,0,1-1.429,1.408C14.891,40.673,12.2,40.662,9.51,40.662Z" transform="translate(0 -28.119)"/><path class="svg-icon email" d="M10.236-.022H18.63a4.308,4.308,0,0,1,.521.01c.511.073.678.438.375.855a1.8,1.8,0,0,1-.574.511C16.4,2.772,13.844,4.17,11.289,5.567a2.119,2.119,0,0,1-2.138-.021C6.627,4.18,4.125,2.8,1.612,1.427c-.063-.031-.125-.073-.177-.1C1.08,1.083.663.781.861.343.955.124,1.466,0,1.789,0,4.6-.033,7.42-.022,10.236-.022Z" transform="translate(-0.725)"/></g></svg>