<svg xmlns="http://www.w3.org/2000/svg" viewBox="4141 240 18 18"><defs><style>.svg-icon.gear{fill:#fff;}</style></defs><path class="svg-icon gear" d="M17.628,8.436c-.466-.217-.921-.466-1.376-.7-.135-.072-.269-.124-.331-.3-.166-.569-.331-1.107.166-1.625a5.982,5.982,0,0,0,.631-.942q.078-.124.155-.279a3.294,3.294,0,0,0-.166-.331A14.615,14.615,0,0,0,15.642,2.8a.82.82,0,0,0-1.107-.29,9.384,9.384,0,0,1-1.076.362A1.052,1.052,0,0,1,11.958,2c-.1-.476-.207-.942-.29-1.418a.5.5,0,0,0-.424-.445A12.849,12.849,0,0,0,9.351-.144a.742.742,0,0,0-.88.5c-.145.362-.362.7-.538,1.056-.435.869-.89.983-1.707.445C4.58.767,4.58.767,3.08,2.06c-.041.031-.072.072-.114.1a.776.776,0,0,0-.3,1.1c.166.352.228.756.373,1.128a1.083,1.083,0,0,1-.1,1c-.248.445-.662.393-1.024.476C.266,6.242.266,6.231.048,7.919-.086,9.005-.086,9.005.855,9.5c.166.083.331.176.507.259a1.191,1.191,0,0,1,.548,1.967c-.217.331-.414.673-.652.994a.534.534,0,0,0-.031.693,13.657,13.657,0,0,0,1.138,1.532.677.677,0,0,0,.89.238c.424-.176.88-.29,1.324-.435a.474.474,0,0,1,.393-.01,1.813,1.813,0,0,1,1.149,1.428c.186,1.428.248,1.418,1.728,1.6,1.283.166,1.283.166,1.873-.994.062-.124.124-.248.186-.362a1.494,1.494,0,0,1,2-.518c1.511.973,1.511.973,2.9-.186.041-.031.072-.072.114-.1a.876.876,0,0,0,.352-1.263,6.729,6.729,0,0,1-.29-.88,1.439,1.439,0,0,1,.973-1.687c1.79-.383,1.79-.383,2-2.225.021-.186.01-.383.031-.569C18.011,8.705,17.877,8.56,17.628,8.436Zm-8.681,4a3.427,3.427,0,1,1,3.466-3.385A3.421,3.421,0,0,1,8.947,12.431Z" transform="translate(4141.015 240.149)"/></svg>