<svg xmlns="http://www.w3.org/2000/svg" viewBox="64 21 59.824 30"><defs><style>.svg-icon.logo.first{fill:#82368c;}.svg-icon.logo.second{fill:#e82e81;}</style></defs><g transform="translate(64 21)"><path class="svg-icon logo first" d="M54.9,13.091H47.367a7.458,7.458,0,0,0-5.279,2.182l-5,5a7.477,7.477,0,0,1-10.628,0L10.628,4.364A15.145,15.145,0,0,0,0,0V7.46A7.287,7.287,0,0,1,5.279,9.642L21.185,25.548a15,15,0,0,0,21.185,0l3.871-3.871a3.846,3.846,0,0,1,2.674-1.126H59.824v-7.46Z"/><path class="svg-icon logo second" d="M44.833,0h0A15.145,15.145,0,0,0,34.205,4.364L18.37,20.27a7.477,7.477,0,0,1-10.628,0L0,12.528V23.155l2.463,2.463a15,15,0,0,0,21.185,0L39.554,9.713a7.4,7.4,0,0,1,5.279-2.182H59.824V0Z"/></g></svg>