<svg xmlns="http://www.w3.org/2000/svg" viewBox="3001 7064 18 18"><defs><style>.svg-icon.phone{fill:#fff;}</style></defs><path class="svg-icon phone" d="M17.48,12.726a12.825,12.825,0,0,0-3.2-2.5,1.549,1.549,0,0,0-2.3.626,3.179,3.179,0,0,0-.4.834,2.3,2.3,0,0,1-.3.521.583.583,0,0,1-.9.313,13.494,13.494,0,0,1-3.9-3.337,5.976,5.976,0,0,1-1.1-1.669.394.394,0,0,1-.1-.313q0-.156.3-.313c.1,0,.2-.1.3-.1s.2-.1.3-.1l.3-.1c.3-.209.7-.417,1-.626a1.317,1.317,0,0,0,.3-1.669,4.625,4.625,0,0,0-.5-1.251l-.2-.313c-.5-.626-.9-1.356-1.5-1.982A1.886,1.886,0,0,0,2.8.42,7.077,7.077,0,0,0,.8,2.3,3.929,3.929,0,0,0,0,4.8H0c0,.209.1.313.1.417A6.062,6.062,0,0,0,.5,6.469,20.519,20.519,0,0,0,11.887,17.523a4.046,4.046,0,0,0,1.6.417c.2,0,.4,0,.5-.1a5.364,5.364,0,0,0,3.7-3.024A1.542,1.542,0,0,0,17.48,12.726Z" transform="translate(3001 7064.06)"/></svg>