<svg xmlns="http://www.w3.org/2000/svg" viewBox="3001 7005 18 16"><defs><style>.svg-icon.sms{fill:#fff;}</style></defs><g transform="translate(3001 6953.888)"><path class="svg-icon sms" d="M45.962,52.5,40,56.585l1.44-2.86Z" transform="translate(-31 10.527)"/><path class="svg-icon sms" d="M9,0C4.028,0,0,3.041,0,6.809s4.028,6.809,9,6.809,9-3.041,9-6.809S13.972,0,9,0ZM4.725,8.17a1.362,1.362,0,1,1,1.35-1.362A1.36,1.36,0,0,1,4.725,8.17ZM9,8.17a1.362,1.362,0,1,1,1.35-1.362A1.36,1.36,0,0,1,9,8.17Zm4.275,0a1.362,1.362,0,1,1,1.35-1.362A1.36,1.36,0,0,1,13.275,8.17Z" transform="translate(0 51.112)"/></g></svg>