<svg xmlns="http://www.w3.org/2000/svg" viewBox="3527.2 7066.9 15.1 12.2"><defs><style>.svg-icon.sound{fill:#fff;}</style></defs><g transform="translate(2310 6360)"><path class="svg-icon sound" d="M8.3,15l7,6.1V8.9Z" transform="translate(1210 698)"/><path class="svg-icon sound" d="M7.2,17.8l5.5,1V11.2l-5.5,1Z" transform="translate(1210 698)"/><path class="svg-icon sound" d="M21.7,15.6H17.5a.645.645,0,0,1-.6-.6h0a.645.645,0,0,1,.6-.6h4.2a.645.645,0,0,1,.6.6h0A.645.645,0,0,1,21.7,15.6Z" transform="translate(1210 698)"/><path class="svg-icon sound" d="M21.7,11.2l-3.6,2.1a.54.54,0,0,1-.8-.2h0a.54.54,0,0,1,.2-.8l3.6-2.1a.54.54,0,0,1,.8.2h0A.54.54,0,0,1,21.7,11.2Z" transform="translate(1210 698)"/><path class="svg-icon sound" d="M21.7,18.7l-3.6-2.1a.54.54,0,0,0-.8.2h0a.54.54,0,0,0,.2.8l3.6,2.1a.54.54,0,0,0,.8-.2h0A.54.54,0,0,0,21.7,18.7Z" transform="translate(1210 698)"/></g></svg>